# xmcd CD database file
#
# Track frame offsets:
#	150
#	22822
#	47165
#	66409
#
# Disc length: 1193 seconds
#
# Revision: 0
# Processed by: cddbd v1.5.1PL0 Copyright (c) Steve Scherf et al.
# Submitted via: CDex 1.50beta9
#
DISCID=2e04a704
DTITLE=Zaffaraya - Zaffaraya
DYEAR=1996
DGENRE=Blues
TTITLE0=Bridge
TTITLE1=Tuesday Night
TTITLE2=Mother
TTITLE3=Childhood
EXTD=YEAR: 1996
EXTT0=
EXTT1=
EXTT2=
EXTT3=
PLAYORDER=
